<svg xmlns="http://www.w3.org/2000/svg" width="106" height="107" viewBox="0 0 106 107">
  <defs>
    <style>
      .cls-1 {
        fill: #fff;
      }

      .cls-2 {
        fill-rule: evenodd;
      }
    </style>
  </defs>
  <circle id="Elipse_1" data-name="Elipse 1" class="cls-1" cx="53" cy="53.203" r="53.656"/>
  <path id="Forma_323_1_copia" data-name="Forma 323 1 copia" class="cls-2" d="M62.824,46.426H86.136V60.06H60.314s24.91,2.981,25.822,31.572c0,0.006-13.628,0-13.628,0s1.011-11.439-12.194-18.287V91.632H46.686V72.976s-12.7,6.664-12.194,18.656H20.864S19.307,65.759,46.686,60.06H20.864V46.426H43.889c-6.65-2.057-22.9-9.35-23.024-31.572,0-.006,13.628,0,13.628,0S33.462,28.116,46.686,33.233V14.854H60.314V33.231c5.257-2.255,11.855-7.315,12.194-18.377,0-.018,13.628,0,13.628,0S87.861,38.5,62.824,46.426Z"/>
</svg>
